<svg width="24" height="24" viewBox="0 0 24 24" fill="none" xmlns="http://www.w3.org/2000/svg">
<path id="checked" d="M2 2V0C0.895431 0 0 0.895431 0 2L2 2ZM15.8462 4C16.9507 4 17.8462 3.10457 17.8462 2C17.8462 0.895431 16.9507 0 15.8462 0V4ZM24 12C24 10.8954 23.1046 10 22 10C20.8954 10 20 10.8954 20 12H24ZM22 22V24C23.1046 24 24 23.1046 24 22H22ZM0 5.84615C0 6.95072 0.895431 7.84615 2 7.84615C3.10457 7.84615 4 6.95072 4 5.84615H0ZM2 22H0C0 23.1046 0.895431 24 2 24L2 22ZM4 19.6923C4 18.5877 3.10457 17.6923 2 17.6923C0.895431 17.6923 0 18.5877 0 19.6923H4ZM4.30769 24C5.41226 24 6.30769 23.1046 6.30769 22C6.30769 20.8954 5.41226 20 4.30769 20V24ZM17 20C15.8954 20 15 20.8954 15 22C15 23.1046 15.8954 24 17 24V20ZM3.55047 10.352C2.85274 9.49574 1.59296 9.36719 0.736654 10.0649C-0.119647 10.7626 -0.248197 12.0224 0.44953 12.8787L3.55047 10.352ZM10.4615 22L8.91107 23.2633C9.32622 23.7728 9.9652 24.0459 10.6203 23.9937C11.2755 23.9415 11.8632 23.5708 12.1925 23.002L10.4615 22ZM23.7345 2.99574C24.2844 2.03779 23.9537 0.815423 22.9957 0.265494C22.0378 -0.284435 20.8154 0.0463236 20.2655 1.00426L23.7345 2.99574ZM2 4H15.8462V0H2V4ZM20 12V22H24V12H20ZM4 5.84615V2H0V5.84615H4ZM4 22V19.6923H0V22H4ZM4.30769 20H2V24H4.30769V20ZM22 20H17V24H22V20ZM0.44953 12.8787L8.91107 23.2633L12.012 20.7367L3.55047 10.352L0.44953 12.8787ZM10.4615 22C12.1925 23.002 12.1925 23.0019 12.1925 23.0018C12.1926 23.0017 12.1927 23.0016 12.1928 23.0014C12.193 23.0011 12.1933 23.0005 12.1937 22.9998C12.1946 22.9983 12.1958 22.9962 12.1975 22.9933C12.2008 22.9875 12.2058 22.9789 12.2124 22.9675C12.2256 22.9448 12.2452 22.9109 12.271 22.8663C12.3225 22.7772 12.3988 22.6455 12.4974 22.475C12.6948 22.1339 12.9819 21.6377 13.3409 21.0169C14.059 19.7753 15.065 18.0354 16.2165 16.042C18.5193 12.0555 21.405 7.05358 23.7345 2.99574L20.2655 1.00426C17.9387 5.05731 15.0552 10.0554 12.7528 14.0412C11.6018 16.0339 10.5962 17.7732 9.87836 19.0143C9.51945 19.6348 9.23249 20.1308 9.03527 20.4716C8.93666 20.642 8.86049 20.7737 8.80897 20.8627C8.78321 20.9072 8.76362 20.941 8.75047 20.9637C8.7439 20.9751 8.73893 20.9837 8.73561 20.9894C8.73395 20.9923 8.7327 20.9944 8.73187 20.9959C8.73146 20.9966 8.73114 20.9971 8.73094 20.9975C8.73083 20.9977 8.73075 20.9978 8.7307 20.9979C8.73065 20.998 8.73063 20.998 10.4615 22Z" fill="url(#paint0_linear_136_3)"/>
<defs>
<linearGradient id="paint0_linear_136_3" x1="12" y1="2" x2="12" y2="22" gradientUnits="userSpaceOnUse">
<stop offset="0.151042" stop-color="#A847F9"/>
<stop offset="1" stop-color="#F994EF"/>
</linearGradient>
</defs>
</svg>
