<svg width="24" height="48" viewBox="0 0 24 48" fill="none" xmlns="http://www.w3.org/2000/svg">
<g id="checkbox-checked">
<path id="checked" d="M2 26V24C0.895431 24 0 24.8954 0 26H2ZM15.8462 28C16.9507 28 17.8462 27.1046 17.8462 26C17.8462 24.8954 16.9507 24 15.8462 24V28ZM24 36C24 34.8954 23.1046 34 22 34C20.8954 34 20 34.8954 20 36H24ZM22 46V48C23.1046 48 24 47.1046 24 46H22ZM0 29.8462C0 30.9507 0.895431 31.8462 2 31.8462C3.10457 31.8462 4 30.9507 4 29.8462H0ZM2 46H0C0 47.1046 0.895431 48 2 48L2 46ZM4 43.6923C4 42.5877 3.10457 41.6923 2 41.6923C0.895431 41.6923 0 42.5877 0 43.6923H4ZM4.30769 48C5.41226 48 6.30769 47.1046 6.30769 46C6.30769 44.8954 5.41226 44 4.30769 44V48ZM17 44C15.8954 44 15 44.8954 15 46C15 47.1046 15.8954 48 17 48V44ZM3.55047 34.352C2.85274 33.4957 1.59296 33.3672 0.736654 34.0649C-0.119647 34.7626 -0.248197 36.0224 0.44953 36.8787L3.55047 34.352ZM10.4615 46L8.91107 47.2633C9.32622 47.7728 9.9652 48.0459 10.6203 47.9937C11.2755 47.9415 11.8632 47.5708 12.1925 47.002L10.4615 46ZM23.7345 26.9957C24.2844 26.0378 23.9537 24.8154 22.9957 24.2655C22.0378 23.7156 20.8154 24.0463 20.2655 25.0043L23.7345 26.9957ZM2 28H15.8462V24H2V28ZM20 36V46H24V36H20ZM4 29.8462V26H0V29.8462H4ZM4 46V43.6923H0V46H4ZM4.30769 44H2V48H4.30769V44ZM22 44H17V48H22V44ZM0.44953 36.8787L8.91107 47.2633L12.012 44.7367L3.55047 34.352L0.44953 36.8787ZM10.4615 46C12.1925 47.002 12.1925 47.0019 12.1925 47.0018C12.1926 47.0017 12.1927 47.0016 12.1928 47.0014C12.193 47.0011 12.1933 47.0005 12.1937 46.9998C12.1946 46.9983 12.1958 46.9962 12.1975 46.9933C12.2008 46.9875 12.2058 46.9789 12.2124 46.9675C12.2256 46.9448 12.2452 46.9109 12.271 46.8663C12.3225 46.7772 12.3988 46.6455 12.4974 46.475C12.6948 46.1339 12.9819 45.6377 13.3409 45.0169C14.059 43.7753 15.065 42.0354 16.2165 40.042C18.5193 36.0555 21.405 31.0536 23.7345 26.9957L20.2655 25.0043C17.9387 29.0573 15.0552 34.0554 12.7528 38.0412C11.6018 40.0339 10.5962 41.7732 9.87836 43.0143C9.51945 43.6348 9.23249 44.1308 9.03527 44.4716C8.93666 44.642 8.86049 44.7737 8.80897 44.8627C8.78321 44.9072 8.76362 44.941 8.75047 44.9637C8.7439 44.9751 8.73893 44.9837 8.73561 44.9894C8.73395 44.9923 8.7327 44.9944 8.73187 44.9959C8.73146 44.9966 8.73114 44.9971 8.73094 44.9975C8.73083 44.9977 8.73075 44.9978 8.7307 44.9979C8.73065 44.998 8.73063 44.998 10.4615 46Z" fill="url(#paint0_linear_127_3)"/>
</g>
<g id="checkbox-unchecked">
<rect id="unchecked" x="2" y="2" width="20" height="20" stroke="url(#paint1_linear_127_3)" stroke-width="4" stroke-linejoin="round"/>
</g>
<defs>
  <style>
    g {
      display: none;
    }
    g:target {
      display: inline;
    }
  </style>
<linearGradient id="paint0_linear_127_3" x1="12" y1="26" x2="12" y2="46" gradientUnits="userSpaceOnUse">
<stop offset="0.151042" stop-color="#A847F9"/>
<stop offset="1" stop-color="#F994EF"/>
</linearGradient>
<linearGradient id="paint1_linear_127_3" x1="12" y1="2" x2="12" y2="22" gradientUnits="userSpaceOnUse">
<stop offset="0.151042" stop-color="#A847F9"/>
<stop offset="1" stop-color="#F994EF"/>
</linearGradient>
</defs>
</svg>
