<svg width="73" height="120" viewBox="0 0 73 120" fill="none" xmlns="http://www.w3.org/2000/svg">
<path d="M25.9999 2.00001L26.2473 3.47947L25.9999 2.00001ZM42.9999 50.5L41.5323 50.8098L41.567 50.9741L41.6371 51.1267L42.9999 50.5ZM46.4999 54L46.568 52.5016L46.4999 54ZM49.4999 48L48.0374 47.6668L48.0104 47.7851L48.0029 47.9063L49.4999 48ZM58.4999 8.50001L59.9625 8.83324L59.9814 8.75026L59.9908 8.66568L58.4999 8.50001ZM64.9999 5.50001L64.6361 6.95522L64.9999 5.50001ZM70.4999 11L69.1072 10.4429L69.0639 10.5512L69.0378 10.6649L70.4999 11ZM63.4999 50.5L64.993 50.6445L63.4999 50.5ZM67.5 88L68.9979 88.079L69.0077 87.8943L68.9722 87.7127L67.5 88ZM58.4999 110L57.4703 108.909L58.4999 110ZM37.9999 118.5L38.0419 119.999L37.9999 118.5ZM19.9999 114L20.757 112.705L20.757 112.705L19.9999 114ZM7.49994 101L8.82057 100.289L8.82057 100.289L7.49994 101ZM3.49994 84H1.99994V84.0522L2.00356 84.1042L3.49994 84ZM1.99994 66L0.499936 66L1.99994 66ZM3.49994 57.5L4.74058 58.3431L4.74058 58.3431L3.49994 57.5ZM7.49994 54L8.03654 55.4007L7.49994 54ZM29.4999 84L29.7388 85.4809L29.4999 84ZM46.4999 81L47.9884 81.186C48.0713 80.5227 47.7052 79.8846 47.0908 79.6213L46.4999 81ZM46.8476 92.9603C47.3779 93.5967 48.3238 93.6827 48.9602 93.1523C49.5966 92.622 49.6826 91.6762 49.1523 91.0397L46.8476 92.9603ZM42.9999 79.5L43.5908 78.1213L43.5034 78.0839L43.412 78.0577L42.9999 79.5ZM32.0003 100.966C31.9814 101.794 32.6374 102.481 33.4656 102.5C34.2938 102.519 34.9806 101.863 34.9995 101.034L32.0003 100.966ZM16.9999 46.5L16.1611 45.2564L16.1611 45.2564L16.9999 46.5ZM16.9999 70.5L18.3922 69.9419L16.9999 70.5ZM16.9999 88L16.937 86.5013L16.9999 88ZM27.9999 67.5L29.4802 67.2578L27.9999 67.5ZM42.9999 61.5L43.356 60.0429L43.356 60.0429L42.9999 61.5ZM65.5 77.75L66.9722 77.4627L66.9676 77.4392L66.9623 77.4158L65.5 77.75ZM64.9999 99.5L66.3652 100.121L64.9999 99.5ZM35.9999 88L34.6578 87.3303L35.9999 88ZM20 8.00001L21.4748 7.72618L21.472 7.711L21.4688 7.69587L20 8.00001ZM33.5 5.49999L32.0085 5.65971L32.0166 5.73537L32.0323 5.80983L33.5 5.49999ZM42.9999 50.5C41.6371 51.1267 41.6373 51.127 41.6374 51.1273C41.6375 51.1274 41.6376 51.1278 41.6377 51.128C41.638 51.1285 41.6382 51.1291 41.6385 51.1297C41.6391 51.131 41.6398 51.1324 41.6405 51.1341C41.6421 51.1374 41.644 51.1415 41.6463 51.1464C41.6509 51.1563 41.6571 51.1694 41.6648 51.1855C41.6802 51.2178 41.7018 51.2621 41.7291 51.3169C41.7837 51.4263 41.8621 51.5783 41.9619 51.7592C42.1598 52.1178 42.4504 52.6053 42.8162 53.1041C43.1767 53.5957 43.6441 54.1451 44.206 54.5911C44.7599 55.0307 45.5166 55.4569 46.4318 55.4985L46.568 52.5016C46.5178 52.4993 46.3542 52.466 46.0709 52.2411C45.7955 52.0226 45.5086 51.7026 45.2354 51.33C44.9676 50.9648 44.7453 50.5938 44.5886 50.3099C44.5111 50.1695 44.4519 50.0543 44.4131 49.9767C44.3938 49.938 44.3797 49.909 44.3712 49.8912C44.367 49.8823 44.3641 49.8762 44.3627 49.8731C44.362 49.8716 44.3616 49.8709 44.3616 49.8709C44.3616 49.8709 44.3617 49.8711 44.3619 49.8715C44.362 49.8717 44.3621 49.872 44.3623 49.8723C44.3623 49.8724 44.3625 49.8727 44.3625 49.8728C44.3626 49.8731 44.3628 49.8734 42.9999 50.5ZM46.4318 55.4985C47.7767 55.5596 48.7162 54.7803 49.287 53.9934C49.8444 53.2248 50.1959 52.2724 50.4261 51.4479C50.6626 50.6007 50.8037 49.7658 50.8859 49.1539C50.9273 48.845 50.9547 48.5861 50.9719 48.402C50.9805 48.3098 50.9866 48.236 50.9906 48.1837C50.9926 48.1575 50.9941 48.1367 50.9951 48.1216C50.9957 48.114 50.9961 48.1079 50.9964 48.1032C50.9965 48.1009 50.9967 48.0989 50.9968 48.0973C50.9968 48.0965 50.9969 48.0958 50.9969 48.0952C50.9969 48.0949 50.997 48.0946 50.997 48.0944C50.997 48.094 50.997 48.0937 49.4999 48C48.0029 47.9063 48.0029 47.906 48.0029 47.9058C48.0029 47.9057 48.0029 47.9054 48.0029 47.9053C48.0029 47.9051 48.003 47.905 48.003 47.9049C48.003 47.9048 48.0029 47.9051 48.0029 47.9057C48.0028 47.9069 48.0026 47.9095 48.0024 47.9135C48.0018 47.9216 48.0008 47.9351 47.9994 47.9537C47.9965 47.9909 47.9918 48.0485 47.9848 48.1234C47.9709 48.2735 47.9479 48.4917 47.9126 48.7546C47.8411 49.2862 47.7229 49.9737 47.5366 50.6413C47.3438 51.3317 47.1089 51.8867 46.8585 52.232C46.7394 52.3961 46.6512 52.4646 46.6107 52.4887C46.5861 52.5034 46.5831 52.5022 46.568 52.5016L46.4318 55.4985ZM50.9625 48.3332L59.9625 8.83324L57.0374 8.16678L48.0374 47.6668L50.9625 48.3332ZM58.4999 8.50001C59.9908 8.66568 59.9907 8.66665 59.9905 8.6676C59.9905 8.6679 59.9904 8.66884 59.9903 8.66943C59.9902 8.67062 59.9901 8.67174 59.9899 8.67281C59.9897 8.67493 59.9895 8.67681 59.9893 8.67845C59.9889 8.68172 59.9886 8.68403 59.9884 8.68541C59.988 8.68817 59.9881 8.68725 59.9888 8.68295C59.9902 8.67428 59.9938 8.65248 60.0007 8.61982C60.0147 8.55378 60.0409 8.44806 60.0863 8.31957C60.179 8.05697 60.3371 7.73892 60.5965 7.46099C61.0166 7.01093 62.036 6.30517 64.6361 6.95522L65.3637 4.0448C61.964 3.19484 59.7333 3.98908 58.4034 5.41402C57.7878 6.07359 57.4459 6.7868 57.2573 7.32108C57.1621 7.59102 57.1024 7.82514 57.0656 7.99934C57.0471 8.0868 57.0341 8.16021 57.0252 8.21673C57.0208 8.24502 57.0173 8.26919 57.0147 8.28888C57.0134 8.29873 57.0123 8.30747 57.0114 8.31506C57.0109 8.31885 57.0105 8.32236 57.0101 8.32557C57.0099 8.32718 57.0097 8.32872 57.0096 8.33018C57.0095 8.33091 57.0094 8.33195 57.0093 8.33232C57.0092 8.33334 57.0091 8.33434 58.4999 8.50001ZM64.6361 6.95522C67.889 7.76845 68.7541 8.93719 68.9982 9.50164C69.132 9.81118 69.1452 10.0796 69.13 10.2634C69.1224 10.3564 69.1075 10.4251 69.0983 10.4606C69.0938 10.4781 69.091 10.4863 69.0917 10.484C69.0921 10.4829 69.0934 10.479 69.0959 10.4722C69.0972 10.4688 69.0987 10.4647 69.1006 10.4598C69.1015 10.4574 69.1025 10.4548 69.1037 10.4519C69.1042 10.4505 69.1048 10.4491 69.1054 10.4476C69.1057 10.4468 69.1061 10.4456 69.1063 10.4453C69.1068 10.4441 69.1072 10.4429 70.4999 11C71.8926 11.5571 71.8931 11.5559 71.8936 11.5547C71.8938 11.5542 71.8943 11.553 71.8946 11.5521C71.8953 11.5504 71.896 11.5486 71.8968 11.5467C71.8982 11.543 71.8998 11.539 71.9014 11.5347C71.9047 11.5262 71.9083 11.5167 71.9121 11.5062C71.9199 11.4851 71.9287 11.46 71.9384 11.4309C71.9577 11.3729 71.9803 11.2988 72.0031 11.2103C72.0486 11.0339 72.0963 10.796 72.1199 10.51C72.1672 9.93605 72.1179 9.15761 71.7517 8.31091C70.9958 6.56287 69.111 4.98161 65.3637 4.0448L64.6361 6.95522ZM70.4999 11C69.0378 10.6649 69.0378 10.6651 69.0378 10.6653C69.0377 10.6655 69.0376 10.6659 69.0375 10.6663C69.0374 10.6671 69.0371 10.6683 69.0367 10.6698C69.036 10.6729 69.035 10.6774 69.0336 10.6833C69.0309 10.6953 69.0269 10.7129 69.0216 10.7362C69.011 10.7827 68.9953 10.8517 68.9748 10.9421C68.9339 11.1231 68.8737 11.3899 68.7967 11.7346C68.6428 12.4241 68.4213 13.4254 68.151 14.6751C67.6105 17.1742 66.8741 20.6679 66.0907 24.6478C64.5265 32.5937 62.7644 42.5286 62.0069 50.3555L64.993 50.6445C65.7355 42.9714 67.4734 33.1563 69.0342 25.2272C69.8133 21.2696 70.5456 17.7946 71.0832 15.3093C71.352 14.0668 71.572 13.0721 71.7246 12.3885C71.8009 12.0467 71.8604 11.7827 71.9008 11.6045C71.921 11.5154 71.9363 11.4477 71.9466 11.4025C71.9518 11.3799 71.9557 11.3629 71.9583 11.3516C71.9595 11.346 71.9605 11.3417 71.9611 11.339C71.9615 11.3376 71.9617 11.3366 71.9618 11.3359C71.9619 11.3356 71.962 11.3354 71.962 11.3352C71.962 11.3351 71.962 11.3351 70.4999 11ZM62.0069 50.3555C61.6592 53.9484 61.6616 58.6487 61.7464 62.4076C61.789 64.2963 61.8529 65.9641 61.9062 67.1601C61.9328 67.7582 61.9568 68.2388 61.9742 68.5705C61.9829 68.7364 61.9899 68.8651 61.9948 68.9527C61.9973 68.9964 61.9992 69.0299 62.0005 69.0527C62.0011 69.0641 62.0016 69.0728 62.002 69.0787C62.0021 69.0816 62.0023 69.0839 62.0024 69.0855C62.0024 69.0863 62.0025 69.0869 62.0025 69.0874C62.0025 69.0876 62.0025 69.0878 62.0025 69.0879C62.0025 69.0881 62.0025 69.0882 63.4999 69C64.9973 68.9119 64.9973 68.9119 64.9973 68.9119C64.9973 68.9118 64.9973 68.9118 64.9973 68.9116C64.9973 68.9114 64.9973 68.9109 64.9973 68.9103C64.9972 68.9091 64.9971 68.9072 64.9969 68.9046C64.9966 68.8995 64.9962 68.8915 64.9956 68.8809C64.9943 68.8597 64.9925 68.8278 64.9902 68.7856C64.9855 68.7012 64.9786 68.576 64.9701 68.4136C64.9531 68.0889 64.9295 67.6162 64.9032 67.0266C64.8507 65.847 64.7877 64.2018 64.7456 62.34C64.6612 58.5981 64.6636 54.0484 64.993 50.6445L62.0069 50.3555ZM57.4703 108.909C54.3856 111.821 51.5419 113.767 48.4898 115.024C45.4377 116.282 42.0924 116.885 37.958 117.001L38.0419 119.999C42.4288 119.877 46.1545 119.231 49.6325 117.798C53.1105 116.365 56.2561 114.181 59.5296 111.091L57.4703 108.909ZM37.958 117.001C34.4171 117.1 31.6261 116.891 28.9884 116.241C26.354 115.592 23.8 114.484 20.757 112.705L19.2428 115.295C22.455 117.173 25.2795 118.417 28.2706 119.154C31.2584 119.89 34.3398 120.103 38.0419 119.999L37.958 117.001ZM20.757 112.705C17.7954 110.974 15.6279 109.355 13.8049 107.454C11.9809 105.552 10.4505 103.315 8.82057 100.289L6.1793 101.711C7.88911 104.886 9.56863 107.371 11.6397 109.531C13.7117 111.691 16.1244 113.472 19.2428 115.295L20.757 112.705ZM8.82057 100.289C7.32646 97.5146 6.35727 93.4703 5.76589 89.9965C5.47423 88.2833 5.28127 86.752 5.16135 85.6496C5.10145 85.099 5.05992 84.6567 5.03349 84.3538C5.02027 84.2024 5.01084 84.0859 5.00478 84.0082C5.00175 83.9694 4.99956 83.9403 4.99817 83.9214C4.99747 83.9119 4.99697 83.905 4.99666 83.9007C4.99651 83.8986 4.9964 83.8971 4.99635 83.8963C4.99632 83.8959 4.9963 83.8956 4.99629 83.8955C4.99629 83.8955 4.99629 83.8955 4.99629 83.8955C4.9963 83.8956 4.99631 83.8958 3.49994 84C2.00356 84.1042 2.00358 84.1045 2.0036 84.1047C2.00361 84.1049 2.00363 84.1052 2.00365 84.1055C2.00369 84.1061 2.00374 84.1068 2.00381 84.1078C2.00394 84.1096 2.00412 84.1121 2.00434 84.1153C2.0048 84.1216 2.00544 84.1305 2.0063 84.1421C2.008 84.1651 2.01051 84.1985 2.01388 84.2417C2.02061 84.328 2.0308 84.4536 2.04484 84.6146C2.07293 84.9365 2.11651 85.4001 2.17894 85.9741C2.30371 87.121 2.50436 88.7138 2.80844 90.5C3.40855 94.025 4.43935 98.4807 6.1793 101.711L8.82057 100.289ZM4.99994 84V74.5H1.99994V84H4.99994ZM3.49994 74.5C4.93964 74.079 4.93967 74.0791 4.93969 74.0792C4.93969 74.0792 4.93971 74.0793 4.93971 74.0793C4.93972 74.0793 4.9397 74.0792 4.93966 74.0791C4.93957 74.0788 4.9394 74.0782 4.93914 74.0773C4.93861 74.0755 4.93774 74.0725 4.93652 74.0683C4.93408 74.0598 4.93028 74.0466 4.9252 74.0289C4.91505 73.9934 4.8998 73.9397 4.88018 73.8695C4.84094 73.729 4.78429 73.5226 4.71602 73.2636C4.57933 72.745 4.39698 72.019 4.21487 71.1916C3.84394 69.5064 3.49994 67.514 3.49994 66L0.499936 66C0.499936 67.8568 0.90593 70.1143 1.285 71.8365C1.47789 72.7128 1.67054 73.4797 1.8151 74.0282C1.88746 74.3028 1.948 74.5234 1.99079 74.6766C2.01218 74.7532 2.02916 74.813 2.04098 74.8543C2.04689 74.8749 2.05151 74.891 2.05475 74.9022C2.05637 74.9078 2.05764 74.9121 2.05856 74.9153C2.05902 74.9169 2.05939 74.9182 2.05967 74.9191C2.05981 74.9196 2.05993 74.92 2.06002 74.9203C2.06007 74.9205 2.06012 74.9207 2.06015 74.9207C2.06019 74.9209 2.06024 74.921 3.49994 74.5ZM3.49994 66C3.49994 62.3894 3.17119 60.6525 4.74058 58.3431L2.25929 56.6569C0.0395491 59.9234 0.499937 62.8691 0.499936 66L3.49994 66ZM4.74058 58.3431C5.83821 56.7279 6.51789 55.9825 8.03654 55.4007L6.96334 52.5993C4.60537 53.5026 3.49497 54.8386 2.25929 56.6569L4.74058 58.3431ZM8.03654 55.4007C8.69988 55.1466 9.78034 55.113 10.8744 55.2064C11.3869 55.2502 11.8453 55.3162 12.1752 55.3714C12.3394 55.3989 12.4699 55.4233 12.5572 55.4404C12.6007 55.449 12.6334 55.4557 12.6539 55.46C12.6642 55.4621 12.6714 55.4636 12.6754 55.4645C12.6775 55.4649 12.6787 55.4652 12.6791 55.4653C12.6793 55.4653 12.6793 55.4653 12.6791 55.4653C12.6789 55.4653 12.6788 55.4652 12.6786 55.4652C12.6785 55.4652 12.6783 55.4651 12.6782 55.4651C12.678 55.4651 12.6778 55.465 12.9999 54C13.3221 52.535 13.3218 52.535 13.3216 52.5349C13.3215 52.5349 13.3212 52.5348 13.321 52.5348C13.3206 52.5347 13.3201 52.5346 13.3195 52.5345C13.3185 52.5342 13.3172 52.5339 13.3157 52.5336C13.3127 52.533 13.3089 52.5321 13.3043 52.5311C13.2949 52.5291 13.2823 52.5265 13.2665 52.5232C13.2348 52.5166 13.1905 52.5075 13.1346 52.4965C13.0229 52.4746 12.8648 52.4451 12.6701 52.4125C12.2821 52.3476 11.7415 52.2696 11.1298 52.2173C9.97528 52.1187 8.30574 52.085 6.96334 52.5993L8.03654 55.4007ZM29.7388 85.4809C30.9843 85.28 32.0749 84.6307 32.9621 83.9029C33.8588 83.1673 34.6402 82.2753 35.2727 81.4439C35.9093 80.6073 36.4222 79.7959 36.7753 79.1963C36.9526 78.8952 37.0914 78.6443 37.1872 78.4661C37.2351 78.377 37.2724 78.3058 37.2984 78.2555C37.3114 78.2303 37.3216 78.2103 37.329 78.1958C37.3326 78.1886 37.3356 78.1827 37.3378 78.1783C37.3389 78.1761 37.3399 78.1742 37.3406 78.1727C37.341 78.172 37.3413 78.1713 37.3416 78.1708C37.3417 78.1705 37.3419 78.1701 37.342 78.17C37.3422 78.1696 37.3423 78.1693 35.9999 77.5C34.6575 76.8307 34.6577 76.8304 34.6578 76.8302C34.6578 76.8301 34.6579 76.8299 34.658 76.8298C34.6581 76.8296 34.6582 76.8295 34.6582 76.8294C34.6582 76.8294 34.6581 76.8297 34.6577 76.8303C34.6571 76.8316 34.6558 76.8342 34.6537 76.8382C34.6497 76.8462 34.6428 76.8596 34.6333 76.878C34.6143 76.9147 34.5846 76.9715 34.5448 77.0456C34.4651 77.1939 34.3453 77.4106 34.1901 77.6742C33.8782 78.204 33.4306 78.9105 32.8852 79.6274C32.3357 80.3496 31.7136 81.0468 31.0594 81.5835C30.3955 82.1281 29.7876 82.4342 29.2611 82.5191L29.7388 85.4809ZM30.9741 58.7227L28.6226 46.2227L25.6743 46.7773L28.0258 59.2773L30.9741 58.7227ZM46.4999 81C45.0115 80.814 45.0115 80.8143 45.0114 80.8146C45.0114 80.8147 45.0114 80.8151 45.0113 80.8154C45.0113 80.816 45.0112 80.8167 45.0111 80.8175C45.0109 80.8192 45.0106 80.8213 45.0103 80.8239C45.0096 80.8292 45.0088 80.8364 45.0077 80.8455C45.0055 80.8636 45.0025 80.8892 44.9988 80.9219C44.9914 80.9873 44.9812 81.0812 44.9693 81.2004C44.9455 81.4385 44.9148 81.7784 44.8863 82.1942C44.8294 83.0234 44.7801 84.1666 44.813 85.4145C44.8457 86.6561 44.9604 88.0401 45.2459 89.3379C45.5262 90.6117 46.0006 91.9438 46.8476 92.9603L49.1523 91.0397C48.7493 90.5562 48.4113 89.7633 48.1759 88.6933C47.9458 87.6474 47.8418 86.4689 47.8119 85.3355C47.7823 84.2084 47.8268 83.1641 47.8792 82.3996C47.9054 82.0185 47.9333 81.7099 47.9544 81.4989C47.965 81.3934 47.9738 81.3125 47.9798 81.2592C47.9828 81.2326 47.9851 81.213 47.9866 81.2006C47.9873 81.1945 47.9879 81.1901 47.9882 81.1877C47.9883 81.1865 47.9884 81.1857 47.9884 81.1854C47.9884 81.1853 47.9884 81.1853 47.9884 81.1854C47.9884 81.1854 47.9884 81.1856 47.9884 81.1856C47.9884 81.1858 47.9884 81.186 46.4999 81ZM35.5879 78.9423L42.5879 80.9423L43.412 78.0577L36.412 76.0577L35.5879 78.9423ZM42.4091 80.8787L45.9091 82.3787L47.0908 79.6213L43.5908 78.1213L42.4091 80.8787ZM27.1484 46.5C27.6094 45.0726 27.6091 45.0725 27.6087 45.0724C27.6086 45.0723 27.6082 45.0722 27.6079 45.0721C27.6073 45.0719 27.6065 45.0717 27.6057 45.0714C27.6041 45.0709 27.602 45.0702 27.5995 45.0694C27.5946 45.0678 27.5879 45.0657 27.5797 45.0631C27.5632 45.0579 27.5403 45.0508 27.5111 45.0418C27.4529 45.0239 27.37 44.9989 27.2649 44.9684C27.0548 44.9075 26.7555 44.8246 26.3875 44.7329C25.6543 44.5501 24.6354 44.3294 23.5001 44.1815C22.3708 44.0344 21.0855 43.9538 19.8314 44.0716C18.59 44.1883 17.2686 44.5094 16.1611 45.2564L17.8387 47.7436C18.3741 47.3825 19.1427 47.1496 20.1121 47.0585C21.069 46.9685 22.1154 47.0265 23.1125 47.1564C24.1037 47.2855 25.0058 47.4803 25.6621 47.6438C25.9888 47.7253 26.2513 47.7981 26.4294 47.8498C26.5184 47.8756 26.5861 47.896 26.63 47.9095C26.652 47.9162 26.6679 47.9212 26.6776 47.9243C26.6825 47.9258 26.6857 47.9269 26.6874 47.9274C26.6882 47.9277 26.6887 47.9278 26.6887 47.9278C26.6887 47.9278 26.6886 47.9278 26.6884 47.9277C26.6883 47.9277 26.6881 47.9276 26.688 47.9276C26.6878 47.9275 26.6875 47.9274 27.1484 46.5ZM16.1611 45.2564C14.3783 46.459 13.2412 48.7211 12.5749 50.3899C12.2235 51.2699 11.9659 52.0833 11.796 52.6758C11.7108 52.9731 11.6469 53.2174 11.6038 53.3899C11.5822 53.4763 11.5657 53.5448 11.5543 53.5933C11.5487 53.6175 11.5442 53.6367 11.5411 53.6506C11.5395 53.6576 11.5382 53.6632 11.5373 53.6675C11.5368 53.6696 11.5364 53.6714 11.5361 53.6728C11.5359 53.6735 11.5358 53.6742 11.5356 53.6747C11.5356 53.675 11.5355 53.6754 11.5355 53.6755C11.5354 53.6758 11.5353 53.6761 12.9999 54C14.4646 54.3239 14.4645 54.3241 14.4644 54.3244C14.4644 54.3244 14.4644 54.3247 14.4644 54.3248C14.4643 54.325 14.4643 54.3251 14.4643 54.3251C14.4643 54.3252 14.4643 54.325 14.4644 54.3244C14.4647 54.3232 14.4653 54.3207 14.4661 54.3169C14.4679 54.3093 14.4708 54.2966 14.4749 54.2791C14.4832 54.2439 14.4962 54.1894 14.5141 54.1178C14.55 53.9745 14.6051 53.7634 14.6799 53.5025C14.83 52.9788 15.0564 52.2652 15.361 51.5023C16.0067 49.8852 16.8696 48.3972 17.8387 47.7436L16.1611 45.2564ZM12.9999 54C11.5161 54.2199 11.5162 54.22 11.5162 54.2202C11.5162 54.2203 11.5162 54.2205 11.5163 54.2208C11.5163 54.2212 11.5164 54.2218 11.5165 54.2226C11.5168 54.2241 11.5171 54.2263 11.5175 54.2291C11.5183 54.2347 11.5196 54.2427 11.5211 54.2532C11.5243 54.2742 11.5289 54.3048 11.535 54.3447C11.5472 54.4244 11.5653 54.5412 11.5891 54.6913C11.6367 54.9917 11.7072 55.4259 11.7994 55.9655C11.9839 57.0442 12.2557 58.5469 12.6056 60.245C13.3005 63.6163 14.3218 67.8506 15.6076 71.0582L18.3922 69.9419C17.211 66.9952 16.2323 62.9795 15.5439 59.6394C15.2023 57.9818 14.9366 56.5134 14.7565 55.4599C14.6665 54.9335 14.598 54.5113 14.5521 54.2218C14.5292 54.0771 14.5119 53.9655 14.5005 53.8907C14.4948 53.8533 14.4905 53.8251 14.4877 53.8065C14.4863 53.7973 14.4853 53.7904 14.4846 53.786C14.4843 53.7838 14.484 53.7822 14.4839 53.7812C14.4838 53.7807 14.4838 53.7804 14.4837 53.7802C14.4837 53.7801 14.4837 53.7801 14.4837 53.7801C14.4837 53.7801 14.4837 53.7802 12.9999 54ZM3.49994 74.5C2.15105 75.1561 2.1512 75.1565 2.15138 75.1568C2.15148 75.157 2.15169 75.1575 2.15188 75.1578C2.15225 75.1586 2.15274 75.1596 2.15332 75.1608C2.15449 75.1632 2.15607 75.1664 2.15805 75.1705C2.16202 75.1786 2.16762 75.1899 2.17481 75.2045C2.18919 75.2336 2.20998 75.2754 2.23697 75.329C2.29095 75.4363 2.36976 75.591 2.47181 75.7863C2.67581 76.1768 2.97316 76.7307 3.35095 77.3928C4.10461 78.7138 5.18746 80.482 6.49649 82.2497C7.79843 84.0078 9.36405 85.8203 11.0939 87.1877C12.8042 88.5398 14.8473 89.5917 17.0629 89.4987L16.937 86.5013C15.7553 86.551 14.4122 85.9868 12.9543 84.8343C11.5159 83.6972 10.1311 82.1169 8.90741 80.4643C7.69077 78.8214 6.67261 77.161 5.95669 75.9062C5.59968 75.2804 5.32009 74.7595 5.13085 74.3973C5.03627 74.2162 4.96439 74.0751 4.91683 73.9805C4.89304 73.9333 4.87535 73.8977 4.86395 73.8746C4.85825 73.8631 4.85412 73.8547 4.85159 73.8495C4.85033 73.847 4.84946 73.8452 4.849 73.8443C4.84877 73.8438 4.84864 73.8435 4.84861 73.8435C4.8486 73.8434 4.84865 73.8435 4.84864 73.8435C4.84872 73.8437 4.84883 73.8439 3.49994 74.5ZM15.6076 71.0582C16.6412 73.6363 18.3115 76.7131 19.6951 79.106C20.392 80.3112 21.0258 81.3595 21.4857 82.1068C21.7157 82.4806 21.9025 82.7797 22.0323 82.9859C22.0971 83.0891 22.1478 83.1691 22.1824 83.2236C22.1997 83.2509 22.2131 83.2719 22.2222 83.2862C22.2268 83.2933 22.2303 83.2988 22.2327 83.3027C22.2339 83.3046 22.2349 83.306 22.2356 83.3071C22.2359 83.3076 22.2362 83.308 22.2364 83.3084C22.2365 83.3085 22.2366 83.3087 22.2366 83.3087C22.2367 83.3089 22.2368 83.309 23.4999 82.5C24.7631 81.6911 24.7631 81.6911 24.7632 81.6911C24.7631 81.6911 24.7631 81.6911 24.7631 81.691C24.763 81.6909 24.7629 81.6907 24.7627 81.6904C24.7622 81.6897 24.7615 81.6886 24.7606 81.6871C24.7587 81.6841 24.7557 81.6794 24.7516 81.6731C24.7435 81.6604 24.7313 81.6412 24.715 81.6156C24.6826 81.5644 24.6342 81.488 24.5717 81.3887C24.4467 81.1899 24.2651 80.8992 24.0407 80.5346C23.5917 79.8049 22.9724 78.7807 22.2922 77.6043C20.9216 75.2339 19.3418 72.3107 18.3922 69.9419L15.6076 71.0582ZM23.4999 82.5C22.8066 83.8302 22.8069 83.8303 22.8071 83.8304C22.8072 83.8305 22.8075 83.8306 22.8077 83.8307C22.8081 83.831 22.8086 83.8312 22.8091 83.8315C22.8102 83.832 22.8115 83.8327 22.813 83.8335C22.816 83.835 22.8199 83.837 22.8246 83.8395C22.8341 83.8444 22.847 83.851 22.8633 83.8592C22.8958 83.8757 22.9415 83.8986 22.9993 83.927C23.1149 83.9836 23.2791 84.0623 23.4824 84.1545C23.8875 84.3382 24.4555 84.5796 25.1077 84.8091C26.3385 85.2423 28.1478 85.7375 29.7388 85.4809L29.2611 82.5191C28.4676 82.6471 27.277 82.3923 26.1038 81.9793C25.5541 81.7858 25.0692 81.5801 24.7218 81.4225C24.5489 81.344 24.4121 81.2784 24.3206 81.2335C24.2748 81.2111 24.2406 81.1939 24.219 81.183C24.2081 81.1775 24.2005 81.1736 24.1962 81.1714C24.194 81.1702 24.1927 81.1696 24.1922 81.1693C24.1919 81.1692 24.1919 81.1692 24.1921 81.1693C24.1922 81.1693 24.1923 81.1694 24.1925 81.1695C24.1926 81.1695 24.1928 81.1696 24.1928 81.1697C24.193 81.1698 24.1933 81.1699 23.4999 82.5ZM17.0629 89.4987C19.7671 89.3851 21.7522 87.5998 22.9528 86.1367C23.5747 85.3789 24.0474 84.634 24.3644 84.0811C24.5237 83.8031 24.646 83.5696 24.7302 83.4018C24.7723 83.3179 24.805 83.2501 24.8282 83.2011C24.8398 83.1766 24.849 83.1568 24.8558 83.142C24.8592 83.1346 24.862 83.1284 24.8642 83.1236C24.8653 83.1211 24.8663 83.119 24.8671 83.1172C24.8675 83.1163 24.8678 83.1155 24.8682 83.1148C24.8683 83.1144 24.8685 83.114 24.8686 83.1138C24.8688 83.1133 24.869 83.1129 23.4999 82.5C22.1308 81.8872 22.131 81.8868 22.1312 81.8864C22.1312 81.8863 22.1314 81.8859 22.1315 81.8857C22.1317 81.8853 22.1318 81.885 22.1319 81.8848C22.1322 81.8843 22.1322 81.8841 22.1322 81.8842C22.1321 81.8845 22.1314 81.8859 22.1302 81.8886C22.1277 81.894 22.123 81.9041 22.1161 81.9187C22.1023 81.9478 22.0798 81.9947 22.0487 82.0567C21.9863 82.1809 21.8902 82.365 21.7617 82.5891C21.5029 83.0405 21.1223 83.6382 20.6337 84.2337C19.6131 85.4774 18.3482 86.4421 16.937 86.5013L17.0629 89.4987ZM35.9999 77.5C36.8635 76.2736 36.8638 76.2737 36.8639 76.2738C36.864 76.2739 36.8641 76.274 36.8642 76.274C36.8643 76.2741 36.8643 76.2741 36.8642 76.274C36.864 76.2739 36.8633 76.2734 36.8623 76.2726C36.8601 76.2711 36.8563 76.2684 36.8508 76.2645C36.8399 76.2567 36.8225 76.2442 36.7989 76.2271C36.7517 76.1929 36.68 76.1405 36.5871 76.0711C36.4013 75.9323 36.1312 75.7259 35.803 75.4622C35.1448 74.9334 34.2619 74.1811 33.3589 73.2857C31.4784 71.421 29.8004 69.2147 29.4802 67.2578L26.5196 67.7422C27.007 70.7209 29.3291 73.5146 31.2466 75.416C32.2427 76.4036 33.2084 77.2259 33.924 77.8009C34.2827 78.0891 34.5808 78.317 34.7915 78.4744C34.8969 78.5531 34.9805 78.6143 35.0391 78.6567C35.0683 78.678 35.0914 78.6945 35.1077 78.7061C35.1159 78.712 35.1224 78.7166 35.1272 78.72C35.1296 78.7217 35.1315 78.7231 35.1331 78.7242C35.1338 78.7247 35.1345 78.7252 35.135 78.7255C35.1353 78.7257 35.1356 78.726 35.1358 78.7261C35.1361 78.7263 35.1363 78.7265 35.9999 77.5ZM29.4802 67.2578C29.262 65.9241 29.5622 64.0595 29.9978 62.3789C30.2077 61.5692 30.4345 60.8555 30.6087 60.3446C30.6956 60.0898 30.7689 59.8871 30.8197 59.7501C30.845 59.6816 30.8648 59.6297 30.8777 59.5959C30.8842 59.5791 30.8889 59.5668 30.8918 59.5593C30.8933 59.5555 30.8943 59.5529 30.8948 59.5516C30.8951 59.5509 30.8952 59.5506 30.8953 59.5505C30.8953 59.5505 30.8953 59.5505 30.8952 59.5506C30.8952 59.5507 30.8951 59.5509 30.8951 59.5509C30.895 59.5511 30.895 59.5513 29.4999 59C28.1049 58.4488 28.1048 58.449 28.1047 58.4492C28.1047 58.4494 28.1046 58.4496 28.1045 58.4498C28.1043 58.4503 28.1041 58.4508 28.1039 58.4514C28.1034 58.4526 28.1028 58.4541 28.1021 58.4559C28.1006 58.4596 28.0987 58.4645 28.0963 58.4706C28.0916 58.4829 28.0849 58.5001 28.0765 58.5219C28.0598 58.5656 28.0361 58.628 28.0066 58.7075C27.9478 58.8664 27.8656 59.0939 27.7693 59.3761C27.5773 59.9392 27.327 60.7267 27.0938 61.6262C26.6433 63.3641 26.1935 65.7494 26.5196 67.7422L29.4802 67.2578ZM63.4999 69C64.1122 67.6307 64.1121 67.6306 64.1119 67.6305C64.1118 67.6305 64.1116 67.6304 64.1113 67.6303C64.1109 67.6301 64.1102 67.6298 64.1093 67.6294C64.1077 67.6286 64.1052 67.6275 64.102 67.6261C64.0957 67.6233 64.0864 67.6192 64.0742 67.6137C64.0499 67.6029 64.0141 67.587 63.9672 67.5663C63.8735 67.5248 63.7357 67.464 63.5578 67.3861C63.202 67.2303 62.6859 67.0061 62.0412 66.731C60.7523 66.1809 58.9479 65.4265 56.8842 64.6087C52.7755 62.9804 47.5707 61.0729 43.356 60.0429L42.6438 62.9571C46.647 63.9355 51.6921 65.778 55.779 67.3977C57.8131 68.2038 59.5928 68.9478 60.8636 69.4902C61.4989 69.7613 62.0064 69.9818 62.3545 70.1342C62.5285 70.2104 62.6626 70.2695 62.7528 70.3095C62.7979 70.3294 62.832 70.3446 62.8547 70.3547C62.866 70.3597 62.8744 70.3635 62.88 70.3659C62.8827 70.3672 62.8848 70.3681 62.886 70.3686C62.8867 70.3689 62.8871 70.3691 62.8874 70.3693C62.8876 70.3693 62.8876 70.3694 62.8877 70.3694C62.8877 70.3694 62.8877 70.3694 63.4999 69ZM43.356 60.0429C40.6981 59.3933 37.28 58.7611 34.5497 58.2941C33.1796 58.0598 31.9735 57.8655 31.1097 57.7298C30.6777 57.6619 30.3311 57.6087 30.092 57.5723C29.9724 57.5541 29.8798 57.5401 29.8168 57.5307C29.7853 57.526 29.7612 57.5224 29.7449 57.5199C29.7367 57.5187 29.7305 57.5178 29.7263 57.5172C29.7241 57.5169 29.7225 57.5166 29.7214 57.5164C29.7208 57.5164 29.7204 57.5163 29.7201 57.5163C29.7199 57.5162 29.7198 57.5162 29.7197 57.5162C29.7196 57.5162 29.7195 57.5162 29.4999 59C29.2803 60.4838 29.2803 60.4838 29.2803 60.4838C29.2804 60.4839 29.2804 60.4839 29.2805 60.4839C29.2807 60.4839 29.2811 60.484 29.2815 60.484C29.2824 60.4842 29.2838 60.4844 29.2857 60.4846C29.2894 60.4852 29.2952 60.4861 29.3029 60.4872C29.3182 60.4895 29.3414 60.4929 29.3719 60.4975C29.4329 60.5067 29.5234 60.5203 29.6408 60.5382C29.8755 60.5739 30.2173 60.6264 30.644 60.6934C31.4977 60.8276 32.69 61.0196 34.0439 61.2512C36.7614 61.716 40.0934 62.3338 42.6438 62.9571L43.356 60.0429ZM62.0376 69.3343L64.0377 78.0843L66.9623 77.4158L64.9622 68.6658L62.0376 69.3343ZM64.0277 78.0373L66.0278 88.2873L68.9722 87.7127L66.9722 77.4627L64.0277 78.0373ZM67.5 88C66.0021 87.921 66.0021 87.9208 66.0021 87.9207C66.0021 87.9207 66.0021 87.9206 66.0021 87.9205C66.0021 87.9205 66.0021 87.9205 66.0021 87.9206C66.0021 87.9209 66.002 87.9216 66.002 87.9227C66.0019 87.9249 66.0017 87.9286 66.0014 87.934C66.0007 87.9448 65.9997 87.9618 65.9983 87.9849C65.9955 88.0311 65.9909 88.1015 65.9843 88.1939C65.971 88.3787 65.9496 88.6512 65.9172 88.9943C65.8524 89.6811 65.7441 90.6466 65.5711 91.754C65.2211 93.9944 64.6213 96.7111 63.6347 98.8786L66.3652 100.121C67.5203 97.5836 68.1706 94.5503 68.5352 92.2171C68.7194 91.0376 68.8346 90.0103 68.9039 89.2761C68.9386 88.9087 68.9619 88.6136 68.9766 88.4084C68.9839 88.3058 68.9892 88.2256 68.9926 88.17C68.9943 88.1422 68.9956 88.1205 68.9965 88.1053C68.9969 88.0976 68.9972 88.0916 68.9975 88.0872C68.9976 88.085 68.9977 88.0832 68.9978 88.0819C68.9978 88.0812 68.9978 88.0806 68.9979 88.0801C68.9979 88.0799 68.9979 88.0796 68.9979 88.0795C68.9979 88.0792 68.9979 88.079 67.5 88ZM63.6347 98.8786C61.8152 102.876 60.2589 106.277 57.4703 108.909L59.5296 111.091C62.8186 107.986 64.5924 104.016 66.3652 100.121L63.6347 98.8786ZM42.9999 79.5C41.9869 78.3938 41.9867 78.3939 41.9866 78.3941C41.9865 78.3942 41.9863 78.3943 41.9862 78.3945C41.9858 78.3948 41.9854 78.3951 41.985 78.3956C41.984 78.3964 41.9828 78.3976 41.9812 78.399C41.9781 78.4018 41.9738 78.4058 41.9683 78.4109C41.9573 78.4211 41.9415 78.4356 41.9213 78.4544C41.8808 78.4921 41.8224 78.5467 41.748 78.6169C41.5993 78.7574 41.3866 78.9606 41.1261 79.2159C40.6059 79.7259 39.8919 80.4468 39.1152 81.2924C37.5894 82.9537 35.7171 85.2074 34.6578 87.3303L37.3421 88.6698C38.2028 86.9449 39.8305 84.9486 41.3247 83.3218C42.058 82.5234 42.734 81.8408 43.2262 81.3582C43.4721 81.1173 43.6712 80.927 43.8078 80.798C43.8761 80.7335 43.9287 80.6844 43.9635 80.652C43.981 80.6358 43.994 80.6237 44.0023 80.6161C44.0065 80.6122 44.0095 80.6095 44.0113 80.6078C44.0122 80.607 44.0128 80.6065 44.013 80.6062C44.0132 80.6061 44.0133 80.606 44.0133 80.606C44.0133 80.606 44.0132 80.6061 44.0132 80.6061C44.0131 80.6061 44.013 80.6062 42.9999 79.5ZM34.6578 87.3303C33.3834 89.8841 32.7359 93.3491 32.3961 96.0473C32.2231 97.4212 32.1244 98.6445 32.0689 99.5249C32.0411 99.9657 32.0241 100.322 32.0139 100.57C32.0089 100.694 32.0055 100.791 32.0034 100.858C32.0023 100.891 32.0016 100.917 32.0011 100.935C32.0009 100.944 32.0007 100.951 32.0006 100.956C32.0005 100.959 32.0004 100.961 32.0004 100.963C32.0004 100.963 32.0004 100.964 32.0004 100.965C32.0003 100.965 32.0003 100.965 32.0003 100.965C32.0003 100.965 32.0003 100.966 33.4999 101C34.9995 101.034 34.9995 101.034 34.9995 101.035C34.9995 101.035 34.9995 101.035 34.9995 101.035C34.9995 101.035 34.9995 101.035 34.9995 101.034C34.9996 101.034 34.9996 101.033 34.9996 101.031C34.9997 101.028 34.9998 101.023 35 101.016C35.0004 101.003 35.001 100.981 35.0019 100.952C35.0037 100.894 35.0068 100.807 35.0114 100.693C35.0208 100.464 35.0367 100.13 35.063 99.7136C35.1156 98.8794 35.2091 97.72 35.3726 96.4221C35.7057 93.7768 36.3081 90.7418 37.3421 88.6698L34.6578 87.3303ZM28.6232 46.2262L21.4748 7.72618L18.5252 8.27384L25.6737 46.7738L28.6232 46.2262ZM32.0323 5.80983L41.5323 50.8098L44.4676 50.1902L34.9677 5.19016L32.0323 5.80983ZM20 8.00001C21.4688 7.69587 21.4691 7.69689 21.4693 7.69789C21.4693 7.69819 21.4695 7.69918 21.4697 7.6998C21.4699 7.70104 21.4701 7.70221 21.4704 7.70332C21.4708 7.70553 21.4712 7.70747 21.4715 7.70916C21.4722 7.71252 21.4726 7.71485 21.4729 7.71615C21.4733 7.71876 21.473 7.71735 21.4722 7.71215C21.4706 7.70171 21.4669 7.67647 21.463 7.63834C21.4552 7.5615 21.447 7.43621 21.4523 7.27683C21.463 6.95502 21.5274 6.52142 21.7369 6.06769C22.1123 5.25443 23.13 4.00071 26.2473 3.47947L25.7526 0.520548C21.8699 1.16976 19.8876 2.91604 19.0131 4.81017C18.5976 5.71014 18.4745 6.55707 18.4539 7.17738C18.4436 7.48906 18.4589 7.75022 18.4784 7.94207C18.4882 8.03828 18.4992 8.11795 18.5087 8.17882C18.5135 8.20928 18.518 8.23513 18.5218 8.25609C18.5238 8.26657 18.5255 8.27583 18.5271 8.28385C18.5279 8.28786 18.5286 8.29156 18.5293 8.29494C18.5296 8.29664 18.5299 8.29825 18.5303 8.29978C18.5304 8.30055 18.5306 8.30164 18.5307 8.30202C18.5309 8.30309 18.5312 8.30415 20 8.00001ZM26.2473 3.47947C29.3952 2.95312 30.7299 3.77504 31.3032 4.36052C31.6241 4.68831 31.8059 5.04102 31.9068 5.31205C31.9569 5.44653 31.9849 5.55521 31.9993 5.62115C32.0064 5.65384 32.01 5.67503 32.0111 5.68245C32.0117 5.68614 32.0117 5.68629 32.0112 5.68262C32.011 5.68079 32.0106 5.67798 32.0102 5.67418C32.0099 5.67228 32.0097 5.67012 32.0094 5.66771C32.0093 5.66651 32.0091 5.66524 32.009 5.66391C32.0089 5.66324 32.0088 5.66219 32.0088 5.66186C32.0086 5.66079 32.0085 5.65971 33.5 5.49999C34.9915 5.34028 34.9914 5.33916 34.9912 5.33803C34.9912 5.33762 34.9911 5.33647 34.991 5.33566C34.9908 5.33404 34.9906 5.33234 34.9904 5.33057C34.99 5.32703 34.9896 5.32319 34.9891 5.31905C34.9881 5.31076 34.9869 5.30128 34.9855 5.29064C34.9827 5.26937 34.979 5.24344 34.9742 5.2132C34.9646 5.15279 34.9506 5.07478 34.9304 4.98204C34.8901 4.79715 34.8243 4.55009 34.7182 4.265C34.5066 3.69691 34.1258 2.95515 33.4467 2.26165C32.0199 0.80452 29.6046 -0.123554 25.7526 0.520548L26.2473 3.47947Z" fill="url(#paint0_linear_201_6)"/>
<defs>
<linearGradient id="paint0_linear_201_6" x1="36.3004" y1="1.81177" x2="36.3004" y2="118.524" gradientUnits="userSpaceOnUse">
<stop offset="0.34375" stop-color="#005BBB"/>
<stop offset="0.635417" stop-color="#FFD500"/>
</linearGradient>
</defs>
</svg>
