<svg width="20" height="20" viewBox="0 0 20 20" fill="none" xmlns="http://www.w3.org/2000/svg">
<path d="M17.7239 19.6095C18.2446 20.1302 19.0888 20.1302 19.6095 19.6095C20.1302 19.0888 20.1302 18.2446 19.6095 17.7239L11.8856 10L19.6095 2.27614C20.1302 1.75544 20.1302 0.911225 19.6095 0.390526C19.0888 -0.130174 18.2446 -0.130174 17.7239 0.390526L10 8.11438L2.27614 0.390524C1.75544 -0.130175 0.911222 -0.130175 0.390524 0.390524C-0.130175 0.911222 -0.130175 1.75544 0.390524 2.27614L8.11438 10L0.390524 17.7239C-0.130175 18.2446 -0.130175 19.0888 0.390524 19.6095C0.911222 20.1302 1.75544 20.1302 2.27614 19.6095L10 11.8856L17.7239 19.6095Z" fill="url(#paint0_linear_122_25)"/>
<defs>
<linearGradient id="paint0_linear_122_25" x1="10" y1="0" x2="10" y2="20" gradientUnits="userSpaceOnUse">
<stop offset="0.151042" stop-color="#A847F9"/>
<stop offset="1" stop-color="#F994EF"/>
</linearGradient>
</defs>
</svg>
